<?xml version="1.0" standalone="no"?>
<!DOCTYPE svg PUBLIC "-//W3C//DTD SVG 20010904//EN"
 "http://www.w3.org/TR/2001/REC-SVG-20010904/DTD/svg10.dtd">
<svg version="1.0" xmlns="http://www.w3.org/2000/svg"
 width="524.000000pt" height="524.000000pt" viewBox="0 0 524.000000 524.000000"
 preserveAspectRatio="xMidYMid meet">
<metadata>
Created by potrace 1.14, written by Peter Selinger 2001-2017
</metadata>
<g transform="translate(0.000000,524.000000) scale(0.100000,-0.100000)"
fill="#000000" stroke="none">
<path d="M2390 5210 c-41 -4 -95 -11 -120 -15 -25 -4 -58 -9 -75 -10 -77 -9
-364 -83 -406 -106 -11 -5 -19 -7 -19 -3 0 3 -6 2 -12 -3 -7 -5 -42 -20 -78
-33 -178 -64 -525 -263 -656 -376 -12 -11 -50 -43 -85 -72 -60 -48 -257 -242
-247 -242 2 0 -18 -24 -44 -52 -27 -29 -76 -91 -108 -138 -33 -47 -63 -89 -68
-95 -50 -65 -195 -337 -243 -456 -30 -75 -106 -307 -112 -344 -3 -16 -10 -46
-16 -65 -5 -19 -12 -51 -15 -70 -3 -19 -8 -46 -11 -60 -2 -13 -7 -42 -10 -65
-4 -22 -8 -51 -10 -65 -27 -165 -21 -551 11 -713 3 -16 7 -38 9 -50 11 -79 45
-232 62 -277 3 -8 7 -20 8 -26 8 -35 70 -206 105 -288 170 -396 458 -766 795
-1023 60 -46 79 -63 69 -63 -4 0 31 -25 79 -55 47 -30 90 -55 95 -55 4 0 53
-25 107 -55 55 -31 110 -58 123 -61 12 -4 22 -10 22 -14 0 -4 10 -10 23 -13
37 -8 200 -79 214 -93 12 -12 82 -35 203 -67 63 -17 210 -44 290 -52 30 -4 69
-8 85 -11 69 -10 453 -12 495 -3 64 15 70 16 120 23 90 12 251 43 295 57 17 5
69 20 118 35 114 34 266 91 307 115 8 5 22 12 30 15 76 30 334 177 395 226 6
4 53 40 105 80 52 39 156 133 231 207 128 129 279 307 279 329 0 6 4 12 9 14
5 2 33 41 62 88 30 47 60 95 67 105 35 56 155 314 191 411 39 108 95 304 106
374 3 19 8 42 10 50 5 18 12 65 20 135 3 28 9 70 12 95 9 63 9 413 0 485 -5
33 -10 76 -12 97 -4 38 -22 141 -39 223 -23 111 -90 324 -138 436 -74 175
-238 464 -321 565 -9 10 -37 46 -64 79 -153 191 -360 378 -584 527 -120 80
-302 179 -404 218 -33 13 -64 27 -70 31 -20 13 -295 99 -370 115 -58 13 -224
41 -295 50 -68 9 -446 11 -520 4z"/>
</g>
</svg>
